<?xml version="1.0" encoding="UTF-8"?>
<svg width="198px" height="64px" viewBox="0 0 198 64" version="1.1" xmlns="http://www.w3.org/2000/svg" xmlns:xlink="http://www.w3.org/1999/xlink">
    <!-- Generator: Sketch 57.1 (83088) - https://sketch.com -->
    <title>Group 2</title>
    <desc>Created with Sketch.</desc>
    <g id="Web" stroke="none" stroke-width="1" fill="none" fill-rule="evenodd">
        <g id="Login-Copy" transform="translate(-621.000000, -241.000000)" fill="#FFFFFF" fill-rule="nonzero">
            <g id="Group-7" transform="translate(480.000000, 241.000000)">
                <g id="Group-2" transform="translate(141.000000, 0.000000)">
                    <path d="M145.892473,31.0139368 L140.116926,32.1050164 C139.584229,29.6228104 138.098288,28.3953459 135.687137,28.3953459 C132.266667,28.3953459 130.276065,31.0139368 130.276065,35.5146401 C130.276065,39.9607893 132.350777,42.6612113 135.82732,42.6612113 C137.369335,42.6612113 138.687057,42.0338405 139.500119,40.9427609 C139.976742,40.2881132 140.172999,39.7425734 140.341219,38.5969399 L146.17284,39.4425265 C145.640143,41.7610706 145.023337,43.0976431 143.845798,44.4342156 C142.107527,46.3708818 139.387973,47.4074074 135.99554,47.4074074 C132.57507,47.4074074 129.687296,46.3708818 127.696695,44.4069386 C125.621983,42.3611644 124.444444,39.1697566 124.444444,35.5146401 C124.444444,31.8049695 125.621983,28.6681158 127.836878,26.5405106 C129.771406,24.7129523 132.603106,23.7037037 135.883393,23.7037037 C139.500119,23.7037037 142.33182,24.9038912 144.154202,27.2769893 C145.051374,28.3953459 145.527997,29.4045945 145.892473,31.0139368 Z" id="C"></path>
                    <path d="M197.250498,31.0139368 L191.47495,32.1050164 C190.942254,29.6228104 189.456312,28.3953459 187.045161,28.3953459 C183.624691,28.3953459 181.63409,31.0139368 181.63409,35.5146401 C181.63409,39.9607893 183.708801,42.6612113 187.185344,42.6612113 C188.72736,42.6612113 190.045082,42.0338405 190.858144,40.9427609 C191.334767,40.2881132 191.531023,39.7425734 191.699243,38.5969399 L197.530864,39.4425265 C196.998168,41.7610706 196.381362,43.0976431 195.203823,44.4342156 C193.465552,46.3708818 190.745998,47.4074074 187.353564,47.4074074 C183.933094,47.4074074 181.045321,46.3708818 179.054719,44.4069386 C176.980008,42.3611644 175.802469,39.1697566 175.802469,35.5146401 C175.802469,31.8049695 176.980008,28.6681158 179.194902,26.5405106 C181.129431,24.7129523 183.961131,23.7037037 187.241418,23.7037037 C190.858144,23.7037037 193.689845,24.9038912 195.512226,27.2769893 C196.409399,28.3953459 196.886022,29.4045945 197.250498,31.0139368 Z" id="C"></path>
                    <g id="airbnb">
                        <path d="M106.173817,16.3500795 C106.173817,18.6056081 104.356377,20.4217968 102.100848,20.4217968 C99.8453196,20.4217968 98.0291309,18.6056081 98.0291309,16.3500795 C98.0291309,14.0945508 99.7833614,12.2783621 102.100848,12.2783621 C104.420213,12.3409461 106.173817,14.1577607 106.173817,16.3500795 L106.173817,16.3500795 Z M89.3837722,24.55735 L89.3837722,25.5599462 C89.3837722,25.5599462 87.4424154,23.0528297 83.3074881,23.0528297 C76.4795697,23.0528297 71.1536683,28.2529373 71.1536683,35.4569857 C71.1536683,42.5990759 76.4169857,47.8611417 83.3074881,47.8611417 C87.5049994,47.8611417 89.3837722,45.2926928 89.3837722,45.2926928 L89.3837722,46.3572473 C89.3837722,46.8585454 89.7605281,47.2334238 90.2612003,47.2334238 L95.3348882,47.2334238 L95.3348882,23.6774184 L90.2612003,23.6774184 C89.7605281,23.6792959 89.3837722,24.1186359 89.3837722,24.55735 L89.3837722,24.55735 Z M89.3837722,39.654497 C88.4450116,41.0332233 86.5649872,42.2235717 84.3100843,42.2235717 C80.300951,42.2235717 77.2305782,39.7177069 77.2305782,35.4569857 C77.2305782,31.1968904 80.300951,28.6910255 84.3100843,28.6910255 C86.503029,28.6910255 88.5075956,29.943958 89.3837722,31.2594744 L89.3837722,39.654497 Z M99.0943112,23.6792959 L105.108011,23.6792959 L105.108011,47.2353013 L99.0943112,47.2353013 L99.0943112,23.6792959 L99.0943112,23.6792959 Z M171.732316,33.2652928 L171.732316,47.2978853 L165.717365,47.2978853 L165.717365,33.9537171 C165.717365,30.0703777 164.464432,28.5032734 161.083643,28.5032734 C159.267454,28.5032734 157.387429,29.4432857 156.195204,30.822012 L156.195204,47.2359271 L150.182755,47.2359271 L150.182755,23.6799218 L154.942271,23.6799218 C155.443569,23.6799218 155.819699,24.1186359 155.819699,24.55735 L155.819699,25.5599462 C157.57393,23.7425058 159.891417,23.0528297 162.208904,23.0528297 C164.840562,23.0528297 167.033507,23.8057157 168.787737,25.3089842 C170.916846,27.0632148 171.732316,29.3181176 171.732316,33.2652928 L171.732316,33.2652928 Z M120.268994,23.0522039 C122.085183,23.0522039 123.025195,23.3663757 123.025195,23.3663757 L123.025195,28.9413617 C123.025195,28.9413617 118.013465,27.2497152 114.88176,30.8213861 L114.88176,47.2972595 L108.866808,47.2972595 L108.866808,23.6792959 L113.941748,23.6792959 C114.443046,23.6792959 114.817924,24.11801 114.817924,24.5567241 L114.817924,25.5593204 C115.94694,24.2431781 118.390221,23.0522039 120.268994,23.0522039 L120.268994,23.0522039 Z M56.8713654,42.8494121 C56.3694414,41.7222736 55.8681433,40.6564674 55.4306808,39.654497 L55.3680968,39.591913 C51.0447916,30.1942941 46.4098179,20.6727588 41.5226305,11.2763916 L41.3348784,10.8996357 C40.8208573,9.92487061 40.3199313,8.94325605 39.8322357,7.95505684 C39.2051436,6.82666667 38.5793033,5.63756998 37.576707,4.50917981 C35.5721403,2.003315 32.6901455,0.624588681 29.6210243,0.624588681 C26.4880675,0.624588681 23.6692825,2.003315 21.6027576,4.38338589 C20.6627454,5.51052439 19.9730693,6.70087275 19.3472289,7.82926293 C18.8582983,8.81684181 18.3573803,9.79844064 17.8445862,10.7738418 L17.6562083,11.1505977 C12.8322308,20.5469649 8.13404718,30.069126 3.8113678,39.4661191 L3.74815793,39.5906613 C3.31006967,40.5945092 2.8081457,41.6590637 2.30684757,42.7855763 C1.99392739,43.4752524 1.68100721,44.2268867 1.36808703,45.041105 C0.55324288,47.3585919 0.302280895,49.5515365 0.616452756,51.807691 C1.30550299,56.5065004 4.43720817,60.4517981 8.76051338,62.2072803 C10.3895758,62.8969564 12.0812223,63.2098765 13.834827,63.2098765 C14.3361252,63.2098765 14.9619655,63.1472925 15.4638895,63.0840826 C17.5316661,62.8337465 19.6614008,62.1453221 21.7291774,60.9549737 C24.2976262,59.5136634 26.740907,57.4471385 29.4971079,54.4399756 C32.2533089,57.4471385 34.7591737,59.5136634 37.2650385,60.9549737 C39.3334409,62.1453221 41.4625498,62.8337465 43.5297005,63.0840826 C44.0309987,63.1479183 44.6580907,63.2098765 45.1593888,63.2098765 C46.9136194,63.2098765 48.6672241,62.8969564 50.2330766,62.2072803 C54.6189659,60.4517981 57.688087,56.4439164 58.3777631,51.807691 C58.8753062,49.6153722 58.6249701,47.4236793 57.8107517,45.1049407 C57.4978316,44.3533064 57.1842855,43.5390881 56.8713654,42.8494121 Z M29.5578144,48.3624398 C26.1745215,44.1023445 23.9815768,40.0932111 23.2305684,36.7111698 C22.9176482,35.2698594 22.8544383,34.016927 23.0428163,32.8891627 C23.1673585,31.8865664 23.5441144,31.0091382 24.0454125,30.257504 C25.2357609,28.5671092 27.2403276,27.501303 29.5584403,27.501303 C31.8771788,27.501303 33.9443295,28.5038993 35.0720939,30.257504 C35.573392,31.0091382 35.9488962,31.8871923 36.075316,32.8891627 C36.2624422,34.0175529 36.1998582,35.3324435 35.886938,36.7111698 C35.1328004,40.0306271 32.9398558,44.0403863 29.5578144,48.3624398 Z M54.5526268,51.3070187 C54.1145386,54.5645178 51.9215939,57.3845545 48.8524728,58.6374869 C47.3492043,59.2633272 45.719516,59.4517052 44.0917052,59.2633272 C42.5258526,59.0749493 40.9587483,58.5736511 39.3309375,57.6348906 C37.0754089,56.3807065 34.8205061,54.4399756 32.1888473,51.5573548 C36.3231488,46.483667 38.8290136,41.8468158 39.7690258,37.7131402 C40.2077399,35.7705317 40.2709498,34.016927 40.081946,32.3872387 C39.8322357,30.8213861 39.2677277,29.3800758 38.3909253,28.1271434 C36.447691,25.3071067 33.1895661,23.6792959 29.5571886,23.6792959 C25.9248111,23.6792959 22.6666862,25.3709424 20.7247036,28.1271434 C19.8479012,29.3800758 19.2833932,30.8213861 19.0330571,32.3872387 C18.7827209,34.016927 18.8446791,35.8331158 19.3459773,37.7131402 C20.2853636,41.8468158 22.8538125,46.5456252 26.9255299,51.6199389 C24.357081,54.5019337 22.0389683,56.4445422 19.7834397,57.6974746 C18.1543772,58.6374869 16.5891505,59.138785 15.0232979,59.3259113 C13.3322772,59.5142892 11.7025889,59.2633272 10.2619044,58.7000709 C7.19278328,57.4471385 4.99983865,54.6271018 4.5617504,51.3696027 C4.37399829,49.8037502 4.49854052,48.2378976 5.12563256,46.483667 C5.31275883,45.856575 5.62693069,45.2307346 5.93985087,44.4791004 C6.37856497,43.4765041 6.87861142,42.410698 7.38053539,41.3461435 L7.44374526,41.2216013 C11.7657988,31.8865664 16.4013984,22.3644053 21.2253759,13.0932062 L21.413128,12.7164503 C21.9150519,11.7776898 22.4163501,10.7750935 22.9170224,9.83508129 C23.4183205,8.83248503 23.9815768,7.8924728 24.6712529,7.07762865 C25.9867693,5.57561178 27.740374,4.76014179 29.6829825,4.76014179 C31.625591,4.76014179 33.3791957,5.57561178 34.6947121,7.07762865 C35.3843882,7.89435032 35.9476445,8.83436255 36.4489427,9.83508129 C36.9508666,10.7750935 37.4521648,11.7776898 37.9522112,12.7164503 L38.1405892,13.0932062 C42.8910067,22.4029268 47.4650476,31.8015982 51.8602616,41.2841853 L51.8602616,41.3467693 C52.3621856,42.3506173 52.8002738,43.4771299 53.3015719,44.4809779 C53.6144921,45.2313605 53.9280381,45.8572008 54.1157902,46.4842929 C54.6158367,48.1114778 54.8035888,49.6785821 54.5526268,51.3070187 L54.5526268,51.3070187 Z" id="Shape"></path>
                    </g>
                </g>
            </g>
        </g>
    </g>
</svg>